# xmcd
#
# Track frame offsets:
#	150
#	19059
#	39361
#
# Disc length: 779 seconds
#
# Revision: 3
# Processed by: cddbd v1.5.2PL0 Copyright (c) Steve Scherf et al.
# Submitted via: EasyCDDAExtractor 11.5.3.1
#
DISCID=18030903
DTITLE=Άννα Βίσση - Αγαπη είναι εσύ
DYEAR=2010
DGENRE=Pop
TTITLE0=Αγάπη είναι εσύ
TTITLE1='Ετσι μόνο αξίζει
TTITLE2=Προτεραιότητα
EXTD=
EXTT0=
EXTT1=
EXTT2=
PLAYORDER=
